<svg xmlns="http://www.w3.org/2000/svg" viewBox="0 0 512 512" fill="#256D85">
  <path d="M225.8 468.2l-2.5-2.3L181.1 421c-6.5-5.8-10.6-13.8-11.6-22.5l-1.1-10.3c-.7-6.5 .9-13.1 4.5-18.6L214.2 312c4.7-7.2 12.7-11.7 21.4-12l10.3-.4c8.7-.3 17.1 3.5 22.8 10.1l42.2 49.3c5.7 6.6 8.3 15.2 7.1 23.8l-1.5 10.3c-1.2 8.6-5.8 16.4-12.7 21.7L225.8 468.2zM96 128c0-35.3 28.7-64 64-64s64 28.7 64 64s-28.7 64-64 64s-64-28.7-64-64zm320 64c0-35.3 28.7-64 64-64s64 28.7 64 64s-28.7 64-64 64s-64-28.7-64-64zM288 128c0-35.3 28.7-64 64-64s64 28.7 64 64s-28.7 64-64 64s-64-28.7-64-64zM48 240c0-26.5 21.5-48 48-48s48 21.5 48 48s-21.5 48-48 48s-48-21.5-48-48z"/>
</svg>
